<svg width="120" height="37" viewBox="0 0 120 37" fill="none" xmlns="http://www.w3.org/2000/svg">
<path d="M14.0444 28.5795L20.5147 6.55809H27.9667L18.0604 36.5H10.5192L0.791385 6.55809H8.33264L14.6691 28.5795H14.0444ZM36.7811 11.6897C35.4275 11.6897 34.3789 11.3476 33.6352 10.6634C32.9063 9.9643 32.5419 8.9826 32.5419 7.71829C32.5419 6.48372 32.9063 5.50202 33.6352 4.77318C34.3789 4.02947 35.4275 3.65761 36.7811 3.65761C38.09 3.65761 39.1238 4.02947 39.8824 4.77318C40.6409 5.50202 41.0202 6.48372 41.0202 7.71829C41.0202 8.9826 40.6409 9.9643 39.8824 10.6634C39.1238 11.3476 38.09 11.6897 36.7811 11.6897ZM33.2113 36.5V14.3894H40.3509V36.5H33.2113ZM97.0951 36.5V14.3894H104.235V36.5H97.0951ZM99.1031 11.779L95.7564 9.01235L104.993 0.199342L109.634 3.94766L99.1031 11.779Z" fill="white"/>
<path d="M45.0307 14.5233H53.3083L56.9004 30.409H56.588L60.1802 14.5233H68.4354L60.8272 36.5H52.6389L45.0307 14.5233ZM68.9545 14.5233H77.232L80.8241 30.409H80.5118L84.1039 14.5233H92.3591L84.7509 36.5H76.5627L68.9545 14.5233ZM109.45 32.3501C109.45 31.0263 109.889 29.9256 110.766 29.048C111.659 28.1704 112.812 27.7316 114.225 27.7316C115.638 27.7316 116.805 28.1704 117.728 29.048C118.65 29.9256 119.111 31.0263 119.111 32.3501C119.111 33.6739 118.65 34.7671 117.728 35.6299C116.805 36.4777 115.638 36.9016 114.225 36.9016C112.812 36.9016 111.659 36.4703 110.766 35.6075C109.889 34.7448 109.45 33.659 109.45 32.3501Z" fill="#37A0FF"/>
</svg>
