<svg width="29" height="15" viewBox="0 0 29 15" fill="none" xmlns="http://www.w3.org/2000/svg">
<path d="M6.3 10.45L9.2 0.58H12.54L8.1 14H4.72L0.36 0.58H3.74L6.58 10.45H6.3ZM13.0006 4.15H16.7106L18.3206 11.27H18.1806L19.7906 4.15H23.4906L20.0806 14H16.4106L13.0006 4.15Z" fill="white"/>
<path d="M23.9633 12.14C23.9633 11.5467 24.1599 11.0533 24.5533 10.66C24.9533 10.2667 25.4699 10.07 26.1033 10.07C26.7366 10.07 27.2599 10.2667 27.6733 10.66C28.0866 11.0533 28.2933 11.5467 28.2933 12.14C28.2933 12.7333 28.0866 13.2233 27.6733 13.61C27.2599 13.99 26.7366 14.18 26.1033 14.18C25.4699 14.18 24.9533 13.9867 24.5533 13.6C24.1599 13.2133 23.9633 12.7267 23.9633 12.14Z" fill="#37A0FF"/>
</svg>
